<?xml version="1.0" encoding="utf-8"?>
<!-- Generator: Adobe Illustrator 21.1.0, SVG Export Plug-In . SVG Version: 6.00 Build 0)  -->
<svg version="1.1" id="Layer_1" xmlns="http://www.w3.org/2000/svg" xmlns:xlink="http://www.w3.org/1999/xlink" x="0px" y="0px"
	 viewBox="0 0 472.4 57.8" style="enable-background:new 0 0 472.4 57.8;" xml:space="preserve">
<style type="text/css">
	.st0{fill:#FFFFFF;}
	.st1{fill:#00A5CB;}
	.st2{fill:#008EBA;}
	.st3{fill:#36C1DA;}
	.st4{fill:#F17C22;}
	.st5{fill:#E66024;}
	.st6{fill:#F7972A;}
	.st7{fill:#1D66B0;}
	.st8{fill:#13509F;}
	.st9{fill:#177EBC;}
</style>
<g>
	<g>
		<path class="st0" d="M101,35.8c0,1,0.1,2.1,0.4,3.1c0.3,0.8,0.7,1.7,1.1,2.5c0.2,0.2,0.2,0.5,0.2,0.8c0,0.4-0.3,0.8-0.7,1
			l-2.1,1.4c-0.3,0.2-0.6,0.3-0.9,0.3c-0.4,0-0.8-0.2-1-0.5c-0.5-0.5-0.9-1-1.2-1.6s-0.7-1.3-1.1-2.1c-2.5,3.1-6.2,4.8-10.1,4.8
			c-2.5,0.1-5-0.7-6.9-2.5c-1.7-1.8-2.6-4.2-2.5-6.6c-0.1-2.7,1-5.3,3-7c2.4-1.9,5.4-2.8,8.4-2.7c1.2,0,2.4,0.1,3.6,0.3
			c1.3,0.2,2.6,0.4,3.9,0.7v-2.5c0.2-2-0.4-4-1.6-5.5c-1.6-1.2-3.6-1.8-5.6-1.6c-1.2,0-2.5,0.2-3.7,0.5c-1.3,0.3-2.5,0.7-3.7,1.2
			c-0.4,0.2-0.8,0.3-1.2,0.5h-0.5c-0.5,0-0.7-0.4-0.7-1.1v-1.6c0-0.4,0.1-0.8,0.2-1.2c0.3-0.3,0.6-0.6,1-0.7
			c1.4-0.7,2.8-1.2,4.3-1.6c1.7-0.4,3.5-0.7,5.4-0.7c3.2-0.3,6.5,0.7,9,2.8c2.1,2.3,3.1,5.4,2.9,8.5v11.1H101z M87,41.1
			c1.2,0,2.4-0.2,3.6-0.6c1.3-0.4,2.4-1.2,3.2-2.2c0.5-0.6,0.9-1.3,1.2-2.1c0.2-1,0.3-2,0.3-3v-1.4c-1-0.2-2.1-0.4-3.2-0.6
			C91,31.1,90,31,88.9,31c-1.8-0.1-3.6,0.4-5.1,1.4c-1.1,1-1.7,2.4-1.6,3.8c-0.1,1.3,0.4,2.7,1.3,3.6C84.4,40.7,85.7,41.1,87,41.1z
			 M114.6,44.8c-0.5,0-0.9-0.1-1.3-0.3c-0.4-0.4-0.6-0.8-0.7-1.3l-8-26.6c-0.2-0.4-0.3-0.9-0.3-1.4c-0.1-0.4,0.2-0.8,0.6-0.8
			c0.1,0,0.1,0,0.2,0h3.4c0.5,0,0.9,0.1,1.3,0.3c0.3,0.4,0.6,0.8,0.7,1.3l5.8,22.7l5.3-22.7c0.1-0.5,0.3-1,0.7-1.3s0.9-0.4,1.4-0.3
			h2.8c0.5,0,1,0.1,1.4,0.3c0.4,0.4,0.6,0.8,0.7,1.3l5.4,23l6-23c0.1-0.5,0.4-1,0.7-1.3c0.4-0.3,0.9-0.4,1.3-0.3h3.2
			c0.4-0.1,0.8,0.2,0.8,0.6c0,0.1,0,0.1,0,0.2c0,0.2,0,0.4,0,0.5c-0.1,0.3-0.1,0.6-0.2,0.8l-8.3,26.6c-0.1,0.5-0.4,1-0.7,1.3
			c-0.4,0.3-0.9,0.4-1.3,0.3h-3c-0.5,0.1-1-0.1-1.4-0.4c-0.4-0.4-0.6-0.9-0.7-1.4L125,20.8L119.6,43c-0.1,0.5-0.3,1-0.7,1.4
			c-0.4,0.3-0.9,0.4-1.4,0.4H114.6z M158.7,45.7c-1.8,0-3.6-0.2-5.3-0.6c-1.4-0.3-2.7-0.7-4-1.4c-0.8-0.3-1.3-1.1-1.3-1.9V40
			c0-0.7,0.3-1.1,0.8-1.1c0.2,0,0.4,0,0.6,0.1l0.9,0.4c1.2,0.5,2.5,0.9,3.8,1.2c1.4,0.3,2.7,0.4,4.1,0.4c1.7,0.1,3.5-0.3,5-1.1
			c1.1-0.7,1.8-1.9,1.8-3.2c0-0.9-0.3-1.8-0.9-2.4c-1-0.9-2.3-1.5-3.6-1.8l-5-1.6c-2.1-0.6-4-1.8-5.4-3.5c-1.1-1.4-1.7-3.2-1.7-5
			c0-1.3,0.3-2.7,0.9-3.8s1.5-2.1,2.5-2.8c1.1-0.8,2.2-1.4,3.5-1.8c1.4-0.4,2.9-0.6,4.3-0.6c0.8,0,1.5,0,2.3,0.1
			c0.8,0.1,1.5,0.2,2.2,0.4c0.7,0.2,1.4,0.3,2,0.5c0.5,0.2,1,0.4,1.4,0.6c0.4,0.2,0.7,0.5,1,0.8c0.2,0.3,0.3,0.7,0.3,1.1v1.6
			c0,0.7-0.3,1.1-0.8,1.1c-0.5-0.1-0.9-0.2-1.3-0.4c-2.1-0.9-4.3-1.4-6.6-1.3c-1.6-0.1-3.2,0.3-4.6,1c-1.1,0.6-1.7,1.8-1.6,3.1
			c0,0.9,0.3,1.8,1,2.4c1.1,0.9,2.4,1.5,3.8,1.9l4.9,1.5c2.1,0.5,3.9,1.7,5.3,3.3c1.1,1.4,1.7,3.2,1.6,5c0,1.4-0.3,2.8-0.9,4
			c-0.6,1.2-1.5,2.2-2.5,3c-1.1,0.9-2.4,1.5-3.8,1.9C162,45.5,160.4,45.7,158.7,45.7z"/>
		<path class="st0" d="M101,35.8c0,1,0.1,2.1,0.4,3.1c0.3,0.8,0.7,1.7,1.1,2.5c0.2,0.2,0.2,0.5,0.2,0.8c0,0.4-0.3,0.8-0.7,1
			l-2.1,1.4c-0.3,0.2-0.6,0.3-0.9,0.3c-0.4,0-0.8-0.2-1-0.5c-0.5-0.5-0.9-1-1.2-1.6s-0.7-1.3-1.1-2.1c-2.5,3.1-6.2,4.8-10.1,4.8
			c-2.5,0.1-5-0.7-6.9-2.5c-1.7-1.8-2.6-4.2-2.5-6.6c-0.1-2.7,1-5.3,3-7c2.4-1.9,5.4-2.8,8.4-2.7c1.2,0,2.4,0.1,3.6,0.3
			c1.3,0.2,2.6,0.4,3.9,0.7v-2.5c0.2-2-0.4-4-1.6-5.5c-1.6-1.2-3.6-1.8-5.6-1.6c-1.2,0-2.5,0.2-3.7,0.5c-1.3,0.3-2.5,0.7-3.7,1.2
			c-0.4,0.2-0.8,0.3-1.2,0.5h-0.5c-0.5,0-0.7-0.4-0.7-1.1v-1.6c0-0.4,0.1-0.8,0.2-1.2c0.3-0.3,0.6-0.6,1-0.7
			c1.4-0.7,2.8-1.2,4.3-1.6c1.7-0.4,3.5-0.7,5.4-0.7c3.2-0.3,6.5,0.7,9,2.8c2.1,2.3,3.1,5.4,2.9,8.5v11.1H101z M87,41.1
			c1.2,0,2.4-0.2,3.6-0.6c1.3-0.4,2.4-1.2,3.2-2.2c0.5-0.6,0.9-1.3,1.2-2.1c0.2-1,0.3-2,0.3-3v-1.4c-1-0.2-2.1-0.4-3.2-0.6
			C91,31.1,90,31,88.9,31c-1.8-0.1-3.6,0.4-5.1,1.4c-1.1,1-1.7,2.4-1.6,3.8c-0.1,1.3,0.4,2.7,1.3,3.6C84.4,40.7,85.7,41.1,87,41.1z
			 M114.6,44.8c-0.5,0-0.9-0.1-1.3-0.3c-0.4-0.4-0.6-0.8-0.7-1.3l-8-26.6c-0.2-0.4-0.3-0.9-0.3-1.4c-0.1-0.4,0.2-0.8,0.6-0.8
			c0.1,0,0.1,0,0.2,0h3.4c0.5,0,0.9,0.1,1.3,0.3c0.3,0.4,0.6,0.8,0.7,1.3l5.8,22.7l5.3-22.7c0.1-0.5,0.3-1,0.7-1.3s0.9-0.4,1.4-0.3
			h2.8c0.5,0,1,0.1,1.4,0.3c0.4,0.4,0.6,0.8,0.7,1.3l5.4,23l6-23c0.1-0.5,0.4-1,0.7-1.3c0.4-0.3,0.9-0.4,1.3-0.3h3.2
			c0.4-0.1,0.8,0.2,0.8,0.6c0,0.1,0,0.1,0,0.2c0,0.2,0,0.4,0,0.5c-0.1,0.3-0.1,0.6-0.2,0.8l-8.3,26.6c-0.1,0.5-0.4,1-0.7,1.3
			c-0.4,0.3-0.9,0.4-1.3,0.3h-3c-0.5,0.1-1-0.1-1.4-0.4c-0.4-0.4-0.6-0.9-0.7-1.4L125,20.8L119.6,43c-0.1,0.5-0.3,1-0.7,1.4
			c-0.4,0.3-0.9,0.4-1.4,0.4H114.6z M158.7,45.7c-1.8,0-3.6-0.2-5.3-0.6c-1.4-0.3-2.7-0.7-4-1.4c-0.8-0.3-1.3-1.1-1.3-1.9V40
			c0-0.7,0.3-1.1,0.8-1.1c0.2,0,0.4,0,0.6,0.1l0.9,0.4c1.2,0.5,2.5,0.9,3.8,1.2c1.4,0.3,2.7,0.4,4.1,0.4c1.7,0.1,3.5-0.3,5-1.1
			c1.1-0.7,1.8-1.9,1.8-3.2c0-0.9-0.3-1.8-0.9-2.4c-1-0.9-2.3-1.5-3.6-1.8l-5-1.6c-2.1-0.6-4-1.8-5.4-3.5c-1.1-1.4-1.7-3.2-1.7-5
			c0-1.3,0.3-2.7,0.9-3.8s1.5-2.1,2.5-2.8c1.1-0.8,2.2-1.4,3.5-1.8c1.4-0.4,2.9-0.6,4.3-0.6c0.8,0,1.5,0,2.3,0.1
			c0.8,0.1,1.5,0.2,2.2,0.4c0.7,0.2,1.4,0.3,2,0.5c0.5,0.2,1,0.4,1.4,0.6c0.4,0.2,0.7,0.5,1,0.8c0.2,0.3,0.3,0.7,0.3,1.1v1.6
			c0,0.7-0.3,1.1-0.8,1.1c-0.5-0.1-0.9-0.2-1.3-0.4c-2.1-0.9-4.3-1.4-6.6-1.3c-1.6-0.1-3.2,0.3-4.6,1c-1.1,0.6-1.7,1.8-1.6,3.1
			c0,0.9,0.3,1.8,1,2.4c1.1,0.9,2.4,1.5,3.8,1.9l4.9,1.5c2.1,0.5,3.9,1.7,5.3,3.3c1.1,1.4,1.7,3.2,1.6,5c0,1.4-0.3,2.8-0.9,4
			c-0.6,1.2-1.5,2.2-2.5,3c-1.1,0.9-2.4,1.5-3.8,1.9C162,45.5,160.4,45.7,158.7,45.7z"/>
	</g>
	<g>
		<path class="st0" d="M186.1,45.1c-0.6,0-0.9-0.3-0.9-0.9V15.4c0-0.6,0.3-0.9,0.9-0.9h1.1c0.6,0,0.9,0.3,1,0.9l0.2,2.4
			c1.7-1.4,3.5-2.4,5.4-3.2s3.7-1.1,5.5-1.1c3.6,0,5.9,1.6,7.1,4.7c1.8-1.5,3.7-2.7,5.7-3.5s4-1.2,6-1.2c2.6,0,4.6,0.8,6,2.4
			c1.4,1.6,2,3.9,2,6.9v21.4c0,0.6-0.3,0.9-0.9,0.9h-1.6c-0.6,0-0.9-0.3-0.9-0.9V24.3c0-2.6-0.4-4.6-1.3-5.8s-2.2-1.8-4.1-1.8
			c-3.6,0-7,1.3-10.3,3.8c0.1,1,0.2,1.9,0.2,2.9v20.8c0,0.6-0.3,0.9-0.9,0.9h-1.5c-0.6,0-0.9-0.3-0.9-0.9V24.3
			c0-2.6-0.4-4.6-1.3-5.8c-0.9-1.2-2.2-1.8-4.1-1.8c-3.5,0-6.9,1.2-10.1,3.7v23.8c0,0.6-0.3,0.9-0.9,0.9H186.1z"/>
		<path class="st0" d="M240.2,45.8c-2.6,0-4.7-0.8-6.2-2.4s-2.3-3.8-2.3-6.4c0-3,0.9-5.3,2.8-7c1.9-1.7,4.5-2.6,7.7-2.6
			c2.5,0,5.2,0.5,8.1,1.4v-5.1c0-2.5-0.5-4.3-1.6-5.3c-1.1-1.1-2.9-1.6-5.4-1.6c-2.6,0-5.3,0.5-8.3,1.5c-0.3,0.1-0.6,0.2-0.9,0.2
			c-0.4,0-0.6-0.3-0.6-0.8v-1c0-0.3,0.1-0.6,0.2-0.8s0.3-0.3,0.6-0.5c3-1.3,6.1-1.9,9.5-1.9s5.8,0.8,7.4,2.3s2.4,3.8,2.4,6.8v21.6
			c0,0.6-0.3,0.9-0.9,0.9h-1.2c-0.6,0-0.9-0.3-0.9-0.9l-0.2-2.6C247.1,44.4,243.7,45.8,240.2,45.8z M240.6,42.6c1.4,0,3-0.3,4.6-0.9
			c1.7-0.6,3.3-1.5,5-2.7v-7.6c-2.5-0.7-5-1.1-7.4-1.1c-5.3,0-7.9,2.2-7.9,6.6c0,1.9,0.5,3.3,1.4,4.3
			C237.4,42.1,238.8,42.6,240.6,42.6z"/>
		<path class="st0" d="M262,45.1c-0.6,0-0.9-0.3-0.9-0.9V15.4c0-0.6,0.3-0.9,0.9-0.9h1.1c0.6,0,0.9,0.3,1,0.9l0.3,3.5
			c1.4-1.7,2.8-2.9,4.2-3.6c1.4-0.7,2.9-1.1,4.7-1.1c0.6,0,1.1,0,1.5,0.1c0.6,0,0.9,0.4,0.9,1v1.5c0,0.2-0.1,0.3-0.2,0.5
			c-0.1,0.1-0.3,0.2-0.5,0.2c-0.3,0-0.6,0-0.9,0s-0.7,0-1.2,0c-1.7,0-3.3,0.3-4.6,1c-1.3,0.7-2.6,1.8-3.9,3.4v22.4
			c0,0.6-0.3,0.9-0.9,0.9H262V45.1z"/>
		<path class="st0" d="M281.1,45.1c-0.6,0-0.9-0.3-0.9-0.9V0.9c0-0.6,0.3-0.9,0.9-0.9h1.5c0.6,0,0.9,0.3,0.9,0.9v27.2l13.6-13
			c0.4-0.4,0.9-0.6,1.4-0.6h2c0.5,0,0.7,0.2,0.7,0.5c0,0.2-0.2,0.5-0.6,0.9l-13.7,13l14.9,14.8c0.3,0.3,0.5,0.6,0.5,0.8
			c0,0.4-0.2,0.6-0.7,0.6h-2.4c-0.5,0-0.9-0.2-1.2-0.5l-14.4-14.5v14.1c0,0.6-0.3,0.9-0.9,0.9C282.7,45.1,281.1,45.1,281.1,45.1z"/>
		<path class="st0" d="M317.5,46c-4.5,0-7.9-1.4-10.2-4.1s-3.4-6.8-3.4-12.2c0-5.1,1.1-9.1,3.4-11.9c2.3-2.8,5.5-4.2,9.6-4.2
			c3.4,0,6.1,1.1,7.9,3.2c1.8,2.1,2.8,5.1,2.8,9.1c0,1.6-0.1,2.8-0.2,3.7c-0.1,0.6-0.4,0.9-1,0.9h-19.2c0,4.3,0.9,7.4,2.6,9.5
			c1.7,2,4.3,3,7.9,3c2.7,0,5.3-0.5,7.8-1.5c0.5-0.2,0.8-0.3,1-0.3s0.3,0.1,0.4,0.2s0.2,0.3,0.2,0.5v0.9c0,0.7-0.2,1.1-0.6,1.3
			C323.7,45.3,320.8,46,317.5,46z M324.5,27.5c0-0.6,0.1-1.2,0.1-2c0-2.9-0.7-5.1-2-6.6s-3.3-2.3-5.8-2.3c-6,0-9.1,3.6-9.5,10.9
			H324.5z"/>
		<path class="st0" d="M343,45.5c-2.2,0-3.9-0.6-5.1-1.9s-1.8-3.1-1.8-5.6V17.5h-4.5c-0.6,0-0.9-0.3-0.9-0.9V16
			c0-0.3,0.1-0.6,0.2-0.7c0.1-0.2,0.3-0.3,0.7-0.3l4.6-0.4l0.4-8c0-0.3,0.1-0.6,0.3-0.7c0.1-0.1,0.3-0.2,0.6-0.2h1
			c0.6,0,0.9,0.3,0.9,0.9v8h8.2c0.6,0,0.9,0.3,0.9,0.9v1.2c0,0.6-0.3,0.9-0.9,0.9h-8.2v20.3c0,1.7,0.3,2.8,1,3.5s1.8,1,3.3,1
			c1.1,0,2.1-0.1,2.9-0.3c0.4-0.1,0.7-0.2,1-0.2c0.2-0.1,0.4-0.1,0.5-0.1c0.4,0,0.6,0.2,0.6,0.7v0.9c0,0.7-0.2,1.1-0.6,1.3
			C346.6,45.2,344.9,45.5,343,45.5z"/>
		<path class="st0" d="M354.6,57.7c-0.6,0-0.9-0.3-0.9-0.9V15.4c0-0.6,0.3-0.9,0.9-0.9h1.1c0.6,0,0.9,0.3,1,0.9l0.2,2.5
			c1.7-1.5,3.4-2.6,5.1-3.3s3.3-1,5.1-1c3.7,0,6.6,1.4,8.7,4.2s3.2,6.7,3.2,11.6c0,5-1.1,9-3.3,12c-2.2,3-5.2,4.5-9,4.5
			c-3.5,0-6.7-1.4-9.5-4.1v15.1c0,0.6-0.3,0.9-0.9,0.9h-1.7V57.7z M366.2,42.6c3.1,0,5.4-1.1,7-3.3c1.6-2.2,2.4-5.4,2.4-9.7
			c0-8.6-3-12.9-9.1-12.9c-3.1,0-6.3,1.3-9.4,3.9v17.9c1.5,1.4,3.1,2.5,4.5,3.1S364.6,42.6,366.2,42.6z"/>
		<path class="st0" d="M390.1,45.3c-1.5,0-2.7-0.5-3.5-1.4c-0.9-1-1.3-2.3-1.3-4v-39c0-0.6,0.3-0.9,0.9-0.9h1.5
			c0.6,0,0.9,0.3,0.9,0.9v38.9c0,0.9,0.2,1.5,0.5,1.9s0.9,0.5,1.7,0.5c0.2,0,0.5,0,0.8-0.1c0.3,0,0.5-0.1,0.7-0.1
			c0.5,0,0.8,0.3,0.8,0.9v1.2c0,0.5-0.2,0.8-0.7,0.9C391.6,45.2,390.9,45.3,390.1,45.3z"/>
		<path class="st0" d="M405.4,45.8c-2.6,0-4.7-0.8-6.2-2.4s-2.3-3.8-2.3-6.4c0-3,0.9-5.3,2.8-7c1.9-1.7,4.5-2.6,7.7-2.6
			c2.5,0,5.2,0.5,8.1,1.4v-5.1c0-2.5-0.5-4.3-1.6-5.3c-1.1-1.1-2.9-1.6-5.4-1.6c-2.6,0-5.3,0.5-8.3,1.5c-0.3,0.1-0.6,0.2-0.9,0.2
			c-0.4,0-0.6-0.3-0.6-0.8v-1c0-0.3,0.1-0.6,0.2-0.8s0.3-0.3,0.6-0.5c3-1.3,6.1-1.9,9.5-1.9s5.8,0.8,7.4,2.3s2.4,3.8,2.4,6.8v21.6
			c0,0.6-0.3,0.9-0.9,0.9h-1.2c-0.6,0-0.9-0.3-0.9-0.9l-0.2-2.6C412.3,44.4,408.9,45.8,405.4,45.8z M405.8,42.6c1.4,0,3-0.3,4.6-0.9
			c1.7-0.6,3.3-1.5,5-2.7v-7.6c-2.5-0.7-5-1.1-7.4-1.1c-5.3,0-7.9,2.2-7.9,6.6c0,1.9,0.5,3.3,1.4,4.3
			C402.6,42.1,404,42.6,405.8,42.6z"/>
		<path class="st0" d="M438.4,45.8c-4.4,0-7.7-1.4-10-4.1S425,35,425,29.8s1.2-9.2,3.5-11.9s5.7-4.1,10-4.1c2.1,0,4.1,0.4,6,1.2
			c0.5,0.2,0.7,0.6,0.7,1.3v0.9c0,0.5-0.2,0.8-0.7,0.8c-0.1,0-0.3,0-0.4-0.1c-0.2,0-0.4-0.1-0.8-0.2c-1.5-0.4-3-0.6-4.5-0.6
			c-3.6,0-6.2,1-7.8,3c-1.6,2-2.4,5.1-2.4,9.5v0.7c0,4.2,0.8,7.3,2.4,9.4c1.6,2,4.2,3,7.7,3c1.5,0,3.1-0.3,4.9-0.8
			c0.4-0.1,0.7-0.2,0.9-0.2c0.2,0,0.3-0.1,0.4-0.1c0.5,0,0.7,0.3,0.7,0.8v0.9c0,0.7-0.2,1.1-0.6,1.3
			C442.8,45.3,440.7,45.8,438.4,45.8z"/>
		<path class="st0" d="M462.3,46c-4.5,0-7.9-1.4-10.2-4.1s-3.4-6.8-3.4-12.2c0-5.1,1.1-9.1,3.4-11.9c2.3-2.8,5.5-4.2,9.6-4.2
			c3.4,0,6.1,1.1,7.9,3.2c1.8,2.1,2.8,5.1,2.8,9.1c0,1.6-0.1,2.8-0.2,3.7c-0.1,0.6-0.4,0.9-1,0.9H452c0,4.3,0.9,7.4,2.6,9.5
			c1.7,2,4.3,3,7.9,3c2.7,0,5.3-0.5,7.8-1.5c0.5-0.2,0.8-0.3,1-0.3s0.3,0.1,0.4,0.2c0.1,0.1,0.2,0.3,0.2,0.5v0.9
			c0,0.7-0.2,1.1-0.6,1.3C468.5,45.3,465.5,46,462.3,46z M469.3,27.5c0-0.6,0.1-1.2,0.1-2c0-2.9-0.7-5.1-2-6.6s-3.3-2.3-5.8-2.3
			c-6,0-9.1,3.6-9.5,10.9H469.3z"/>
	</g>
	<g>
		<circle class="st0" cx="13.4" cy="51.4" r="4.1"/>
		<circle class="st0" cx="37" cy="51.4" r="4.1"/>
		<polygon class="st0" points="63.9,13.2 45.5,13.2 38.2,38.2 11.6,38.2 7,23.5 0,23.5 7.3,45.4 42.5,45.4 50.8,18.8 63.9,18.8 		
			"/>
		<g>
			<g>
				<polygon class="st1" points="25.8,17.7 33.8,21.4 41.7,8.7 25.8,8.7 				"/>
				<polygon class="st2" points="41.7,17.7 33.8,21.4 33.8,8.7 41.7,8.7 				"/>
				<polygon class="st3" points="33.8,4.7 25.8,8.7 33.8,12.3 41.7,8.7 				"/>
			</g>
			<g>
				<polygon class="st4" points="7.8,17.7 15.8,21.4 23.7,8.7 7.8,8.7 				"/>
				<polygon class="st5" points="23.7,17.7 15.8,21.4 15.8,8.7 23.7,8.7 				"/>
				<polygon class="st6" points="15.8,4.7 7.8,8.7 15.8,12.3 23.7,8.7 				"/>
			</g>
			<g>
				<polygon class="st7" points="16.8,32.5 24.8,36.2 32.7,23.2 16.8,23.2 				"/>
				<polygon class="st8" points="32.7,32.5 24.8,36.2 24.8,23.2 32.7,23.2 				"/>
				<polygon class="st9" points="24.8,19.5 32.7,23.2 24.8,27.1 16.8,23.2 				"/>
			</g>
		</g>
	</g>
</g>
</svg>
